<?xml version="1.0" ?><!DOCTYPE svg  PUBLIC '-//W3C//DTD SVG 1.1//EN'  'http://www.w3.org/Graphics/SVG/1.1/DTD/svg11.dtd'><svg height="2048px" style="shape-rendering:geometricPrecision; text-rendering:geometricPrecision; image-rendering:optimizeQuality; fill-rule:evenodd; clip-rule:evenodd" viewBox="0 0 2048 2048" width="2048px" xml:space="preserve" xmlns="http://www.w3.org/2000/svg" xmlns:xlink="http://www.w3.org/1999/xlink"><defs><style type="text/css">
   <![CDATA[
    .fil4 {fill:none}
    .fil1 {fill:#333333}
    .fil2 {fill:#82DD6C}
    .fil3 {fill:#EBE5DF}
    .fil0 {fill:#333333;fill-rule:nonzero}
   ]]>
  </style></defs><g id="Layer_x0020_1"><path class="fil0" d="M1493.76 305.207l-937.459 -1.31575c-69.2138,-0.0874016 -131.93,27.8977 -177.372,73.213 -45.4217,45.2953 -73.5697,107.904 -73.6725,177.085l-1.32047 937.523c-0.0862205,69.2174 27.9012,131.943 73.2178,177.392 45.2965,45.43 107.904,73.5816 177.076,73.6796l937.437 1.3252c69.2256,0.0933072 131.943,-27.887 177.385,-73.2048 45.4276,-45.3024 73.578,-107.929 73.689,-177.135l1.31575 -937.516 -0.0625985 0 0 -0.046063 0.0625985 0c0.0992127,-69.202 -27.874,-131.902 -73.1788,-177.333 -45.2882,-45.4122 -107.893,-73.5567 -177.071,-73.6678l0 0.0625985 -0.046063 0 0 -0.0625985zm-937.459 -33.1914l937.459 1.31575 0 -0.0625985 0.046063 0 0 0.0625985c78.0426,0.126378 148.644,31.8508 199.696,83.0434 51.0331,51.1748 82.5414,121.828 82.4292,199.833l0.0625985 0 0 0.046063 -0.0625985 0 -1.31575 937.516c-0.126378,78.0697 -31.8567,148.694 -83.0646,199.76 -51.1855,51.0449 -121.856,82.5615 -199.885,82.4552l-937.437 -1.3252c-78.0343,-0.111024 -148.641,-31.8449 -199.701,-83.0552 -51.0414,-51.1902 -82.565,-121.871 -82.4682,-199.892l1.32047 -937.523c0.115748,-78.0449 31.8449,-148.65 83.0481,-199.71 51.1831,-51.0414 121.854,-82.5615 199.872,-82.4634z"/><path class="fil1" d="M1353.28 949.254l-88.4079 0 0 -70.2674 88.4079 0c9.97914,0 18.0756,-8.16024 18.0756,-18.1276 0,-9.95198 -8.113,-18.1181 -18.0756,-18.1181l-106.55 0c-9.95434,0 -18.0791,8.17323 -18.0791,18.1181l0 212.956c0,9.96497 8.10237,18.1358 18.0791,18.1358l106.55 0c9.97678,0 18.0756,-8.17205 18.0756,-18.1358 0,-9.94017 -8.13426,-18.0851 -18.0756,-18.0851l-88.4079 0 0 -70.2804 88.4079 0c9.95316,0 18.0756,-8.1319 18.0756,-18.0839 0,-9.96851 -8.09883,-18.1122 -18.0756,-18.1122zm-182.336 124.562l0 -212.956c0,-9.97442 -8.13544,-18.1181 -18.1134,-18.1181 -9.96733,0 -18.1099,8.15316 -18.1099,18.1181l0 162.311 -127.212 -173.241c-3.32717,-4.53071 -8.79804,-7.18819 -14.3988,-7.18819 -1.95118,0 -3.89764,0.329528 -5.74843,0.94252 -7.40906,2.45315 -12.3791,9.37678 -12.3791,17.1756l0 212.956c0,9.99213 8.11418,18.1358 18.111,18.1358 10.0158,0 18.1099,-8.12599 18.1099,-18.1358l0 -162.225 127.197 173.186c3.33189,4.53544 8.79331,7.17402 14.3988,7.17402 1.95591,0 3.88229,-0.325985 5.7378,-0.94252 7.44568,-2.47441 12.4075,-9.34607 12.4075,-17.1933zm-256.37 0l0 -212.956c0,-9.95552 -8.1189,-18.1181 -18.0827,-18.1181 -9.97087,0 -18.0992,8.15197 -18.0992,18.1181l0 212.956c0,9.99331 8.09764,18.1358 18.0992,18.1358 9.9945,0 18.0827,-8.15316 18.0827,-18.1358zm-100.158 18.1358c10.0252,0 18.111,-8.11772 18.111,-18.1358 0,-9.99331 -8.12245,-18.0851 -18.111,-18.0851l-88.3772 0 0 -194.871c0,-9.96733 -8.1189,-18.1181 -18.0933,-18.1181 -9.96851,0 -18.0815,8.15906 -18.0815,18.1181l0 212.956c0,9.98623 8.08229,18.1358 18.0815,18.1358l106.471 0z"/><path class="fil0" d="M1544.19 959.266c0,-114.869 -57.8351,-219.24 -151.212,-295.018 -94.2827,-76.5142 -224.691,-123.906 -368.714,-123.906 -144.028,0 -274.452,47.3953 -368.748,123.911 -93.3839,75.7772 -151.228,180.148 -151.228,295.014 0,102.649 45.554,197.151 121.91,270.257 77.5276,74.2288 186.705,126.458 312.373,143.08l1.25079 0.187795c11.1839,2.38937 24.8244,6.3567 36.124,12.6768 10.1303,5.66693 18.5043,13.2473 22.5969,23.361l0 0.0625985c3.55276,8.88544 4.71969,19.6051 4.69843,30.0992 -0.0200788,9.64961 -1.00512,19.0429 -1.97599,26.3433l-0.0625985 0.500788c-0.0200788,0.122835 -6.36497,38.5488 -7.60867,45.9886l0 0.125197 -0.196063 1.10669c-0.868111,4.87914 -2.34685,13.1858 -0.829134,16.7917 0.805512,1.91339 6.62599,1.47402 25.5071,-6.47363 33.3579,-14.0646 135.144,-75.2068 235.871,-149.655 58.7209,-43.4008 116.787,-91.1457 160.164,-136.378l19.3654 -21.2232c37.63,-41.2406 65.4036,-82.6784 83.7142,-125.3 18.1299,-42.2032 27,-85.728 27,-131.55zm-131.088 -319.767c100.711,81.7312 163.089,194.825 163.089,319.767 0,50.165 -9.73229,97.8674 -29.6268,144.176 -15.7217,36.5953 -37.78,72.2233 -66.3898,107.424l0.154725 0 -2.72717 3.14055c-6.50315,7.88977 -13.3358,15.7571 -20.5016,23.6103l-0.00354331 -0.00236221c-46.1705,53.0764 -114.836,110.498 -184.151,161.728 -102.645,75.8658 -207.585,138.685 -242.495,153.404 -42.0189,17.6882 -59.9162,6.91654 -67.2567,-10.5248 -5.24646,-12.4654 -2.75906,-26.4532 -1.29685,-34.6666l0.196063 -1.10669 0.0200788 0.00354331c1.50354,-8.99528 7.57442,-45.6532 7.58859,-45.7441l0.00354331 0c0.826772,-6.3 1.64291,-14.1532 1.65945,-21.7181 0.0129921,-6.89528 -0.588189,-13.5354 -2.42599,-18.1701l-0.0212599 0.00826772c-1.04882,-2.59134 -4.27914,-5.14016 -8.47323,-7.48701 -7.86379,-4.39843 -18.2563,-7.36772 -27.0366,-9.25513 -132.168,-17.6906 -247.266,-72.9851 -329.335,-151.563 -82.5426,-79.03 -131.786,-181.554 -131.786,-293.257 0,-124.938 62.3871,-238.034 163.106,-319.762 99.815,-80.9942 237.385,-131.163 388.871,-131.163 151.482,0 289.036,50.1662 388.838,131.158z"/><path class="fil2" d="M1457.1 1237.61l0 0zm-487.391 223.094l0 0zm54.5575 -952.367c151.482,0 289.036,50.1662 388.838,131.158 100.711,81.7312 163.089,194.825 163.089,319.767 0,50.165 -9.73229,97.8674 -29.6268,144.176 -15.7217,36.5953 -37.78,72.2233 -66.3898,107.424l0.154725 0 -2.72717 3.14055c-6.50315,7.88977 -13.3358,15.7571 -20.5051,23.6079 -46.1705,53.0764 -114.836,110.498 -184.151,161.728 -102.645,75.8658 -207.585,138.685 -242.495,153.404 -42.0189,17.6882 -59.9162,6.91654 -67.2567,-10.5248 -5.24646,-12.4654 -2.75906,-26.4532 -1.29685,-34.6666l0.196063 -1.10669 0.0200788 0.00354331 7.59213 -45.7441c0.826772,-6.3 1.64291,-14.1532 1.65945,-21.7181 0.0129921,-6.89528 -0.588189,-13.5354 -2.42599,-18.1701l-0.0212599 0.00826772c-1.04882,-2.59134 -4.27914,-5.14016 -8.47323,-7.48701 -7.86379,-4.39843 -18.2563,-7.36772 -27.0366,-9.25513 -132.168,-17.6906 -247.266,-72.9851 -329.335,-151.563 -82.5426,-79.03 -131.786,-181.554 -131.786,-293.257 0,-124.938 62.3871,-238.034 163.106,-319.762 99.815,-80.9942 237.385,-131.163 388.871,-131.163zm469.5 -203.134l-937.459 -1.31575c-69.2138,-0.0874016 -131.93,27.8977 -177.372,73.213 -45.4217,45.2953 -73.5697,107.904 -73.6725,177.085l-1.32047 937.523c-0.0862205,69.2174 27.9012,131.943 73.2178,177.392 45.2965,45.43 107.904,73.5816 177.076,73.6796l937.437 1.3252c69.2256,0.0933072 131.943,-27.887 177.385,-73.2048 45.4276,-45.3024 73.578,-107.929 73.689,-177.135l1.31575 -937.516 -0.0625985 0 0 -0.046063 0.0625985 0c0.0992127,-69.202 -27.874,-131.902 -73.1788,-177.333 -45.2882,-45.4122 -107.893,-73.5567 -177.071,-73.6678l0 0.0625985 -0.046063 0 0 -0.0625985z"/><path class="fil3" d="M1392.98 664.248c-94.2827,-76.5142 -224.691,-123.906 -368.714,-123.906 -144.028,0 -274.452,47.3953 -368.748,123.911 -93.3839,75.7772 -151.228,180.148 -151.228,295.014 0,102.649 45.554,197.151 121.91,270.257 77.5276,74.2288 186.705,126.458 312.373,143.08l1.25079 0.187795c11.1839,2.38937 24.8244,6.3567 36.124,12.6768 10.1303,5.66693 18.5043,13.2473 22.5969,23.361l0 0.0625985c3.55276,8.88544 4.71969,19.6051 4.69843,30.0992 -0.0200788,9.64961 -1.00512,19.0429 -1.97599,26.3433l-0.0625985 0.500788c-0.0200788,0.122835 -6.36497,38.5488 -7.60867,45.9886l0 0.125197 -0.196063 1.10669c-0.868111,4.87914 -2.34685,13.1858 -0.829134,16.7917 0.805512,1.91339 6.62599,1.47402 25.5071,-6.47363 33.3579,-14.0646 135.144,-75.2068 235.871,-149.655 58.7209,-43.4008 116.787,-91.1457 160.164,-136.378l19.3654 -21.2232c37.63,-41.2406 65.4036,-82.6784 83.7142,-125.3 18.1299,-42.2032 27,-85.728 27,-131.55 0,-114.869 -57.8351,-219.24 -151.212,-295.018zm-258.255 196.611c0,-9.96497 8.14253,-18.1181 18.1099,-18.1181 9.97796,0 18.1134,8.14371 18.1134,18.1181l0 212.956c0,7.84725 -4.96181,14.7189 -12.4075,17.1933 -1.85551,0.616536 -3.78189,0.94252 -5.7378,0.94252 -5.60552,0 -11.0669,-2.63858 -14.3988,-7.17402l-127.197 -173.186 0 162.225c0,10.0099 -8.0941,18.1358 -18.1099,18.1358 -9.99686,0 -18.111,-8.14371 -18.111,-18.1358l0 -212.956c0,-7.79882 4.97008,-14.7225 12.3791,-17.1756 1.85079,-0.612993 3.79725,-0.94252 5.74843,-0.94252 5.60079,0 11.0717,2.65748 14.3988,7.18819l127.212 173.241 0 -162.311zm93.9308 212.956l0 -212.956c0,-9.94489 8.12481,-18.1181 18.0791,-18.1181l106.55 0c9.96261,0 18.0756,8.16615 18.0756,18.1181 0,9.96733 -8.09646,18.1276 -18.0756,18.1276l-88.4079 0 0 70.2674 88.4079 0c9.97678,0 18.0756,8.14371 18.0756,18.1122 0,9.95198 -8.12245,18.0839 -18.0756,18.0839l-88.4079 0 0 70.2804 88.4079 0c9.94135,0 18.0756,8.14489 18.0756,18.0851 0,9.96379 -8.09883,18.1358 -18.0756,18.1358l-106.55 0c-9.97678,0 -18.0791,-8.17087 -18.0791,-18.1358zm-332.16 -231.075c9.96379,0 18.0827,8.1626 18.0827,18.1181l0 212.956c0,9.98268 -8.0882,18.1358 -18.0827,18.1358 -10.0016,0 -18.0992,-8.14253 -18.0992,-18.1358l0 -212.956c0,-9.96615 8.12835,-18.1181 18.0992,-18.1181zm-82.0749 212.99c9.98859,0 18.111,8.09174 18.111,18.0851 0,10.0181 -8.08583,18.1358 -18.111,18.1358l-106.471 0c-9.99922,0 -18.0815,-8.14961 -18.0815,-18.1358l0 -212.956c0,-9.95906 8.113,-18.1181 18.0815,-18.1181 9.97442,0 18.0933,8.15079 18.0933,18.1181l0 194.871 88.3772 0z"/></g><rect class="fil4" height="2048" width="2048"/></svg>